# xmcd
#
# Track frame offsets:
#  150
#  8387
#  22364
#  44390
#  76677
#  115299
#  130714
#  149278
#  173708
#  192643
#  212017
#
# Disc length: 3191 seconds
#
# Revision: 0
# Processed by: cddbd v1.5.1PL0 Copyright (c) Steve Scherf et al.
# Submitted via: Collectorz.com_Music_Collector 6.9
#
DISCID=900c750b
DTITLE=Avner and Rachel Boskey - Old and New
DYEAR=1993
DGENRE=Messianic
TTITLE0=O Praise The L-rd
TTITLE1=Yahweh L-rd Of All Creation
TTITLE2=The Cup Of Salvation
TTITLE3=Yeshua My Life/All Consuming Fire
TTITLE4=Behold You Are Fair/Arise My Love
TTITLE5=Roll Your Way
TTITLE6=The Messianic Banquet
TTITLE7=Search Me O G-d
TTITLE8=L-rd Of The Battle
TTITLE9=Weep Wail
TTITLE10=Have You Ears To Hear?
EXTD=
EXTT0=
EXTT1=
EXTT2=
EXTT3=
EXTT4=
EXTT5=
EXTT6=
EXTT7=
EXTT8=
EXTT9=
EXTT10=
PLAYORDER=
